<svg width="64" height="30" viewBox="0 0 64 30" fill="none" xmlns="http://www.w3.org/2000/svg" class="u:ml-2"><path d="M49.4499 0C47.9032 0 46.3565 0.252285 44.8821 0.771696H13.5441C6.05656 0.771696 0 7.00463 0 14.6771C0 22.3643 6.07101 28.5824 13.5441 28.5824H44.8821C52.3697 31.1647 60.4644 27.039 62.994 19.3666C65.5091 11.6793 61.4907 3.36875 54.0176 0.771696C52.5432 0.267126 50.9965 0 49.4499 0Z" transform="translate(0.256226 0.541504)" fill="#049C73"></path> <path d="M27.1172 13.9202C27.1172 21.6075 21.0462 27.8404 13.5586 27.8404C6.07102 27.8404 0 21.6075 0 13.9202C0 6.23293 6.07102 0 13.5586 0C21.0462 0 27.1172 6.23293 27.1172 13.9202Z" transform="translate(36.1475 1.29858)" fill="white"></path> <path d="M2.22604 0H2.94878L1.80685 2.44865V4.00688H1.14193V2.44865L0 0H0.737195L1.47439 1.72148L2.22604 0Z" transform="translate(5.04089 13.0078)" fill="white"></path> <path d="M1.48523 3.50371C1.65869 3.50371 1.81769 3.42951 1.93333 3.29594C2.06342 3.14754 2.15015 2.96946 2.19352 2.77653C2.25134 2.55393 2.28024 2.31648 2.28024 2.07904C2.2947 1.72287 2.22242 1.38154 2.07788 1.05506C1.94778 0.71373 1.57196 0.565326 1.2395 0.698889C1.0805 0.773091 0.950403 0.891813 0.892584 1.0699C0.748036 1.38154 0.675762 1.73771 0.690217 2.07904C0.675762 2.43521 0.748036 2.77653 0.892584 3.10302C0.993768 3.3553 1.22504 3.51855 1.48523 3.50371ZM1.48523 4.15668C1.18168 4.17152 0.878129 4.0528 0.632398 3.85988C0.401121 3.66695 0.242118 3.39983 0.140934 3.10302C-0.0469781 2.43521 -0.0469781 1.72287 0.140934 1.05506C0.227663 0.75825 0.401121 0.505965 0.632398 0.298201C0.863674 0.0904368 1.16723 -0.0134454 1.48523 0.00139492C1.67314 0.00139492 1.86106 0.0310751 2.04897 0.105277C2.20797 0.179478 2.35252 0.28336 2.46816 0.416923C2.5838 0.550486 2.68498 0.71373 2.75725 0.876973C2.82953 1.05506 2.88735 1.24798 2.93071 1.4409C3.00298 1.85643 3.00298 2.2868 2.93071 2.70233C2.9018 2.89525 2.84398 3.08818 2.75725 3.26626C2.68498 3.42951 2.5838 3.59275 2.46816 3.72631C2.35252 3.85988 2.20797 3.96376 2.04897 4.03796C1.87551 4.127 1.6876 4.15668 1.48523 4.15668Z" transform="translate(8.23889 12.9321)" fill="white"></path> <path d="M1.32984 4.08109C0.982927 4.09593 0.636011 3.96236 0.375824 3.69524C0.130093 3.44295 0.0144548 3.04226 0 2.47833V0H0.66492V2.47833C0.66492 2.81966 0.72274 3.07194 0.838379 3.22035C0.954017 3.36875 1.14193 3.44295 1.32984 3.44295C1.76349 3.44295 1.99476 3.1313 1.99476 2.49317V0H2.65968V2.47833C2.65968 3.02742 2.54404 3.42811 2.28386 3.69524C2.03813 3.94752 1.69121 4.09593 1.32984 4.08109Z" transform="translate(11.8345 13.0078)" fill="white"></path> <path d="M0.679376 0.638133V1.79568H1.37321C1.53221 1.81052 1.70567 1.75116 1.8213 1.63243C1.90803 1.51371 1.96585 1.36531 1.9514 1.2169C1.9514 1.0685 1.90803 0.920099 1.8213 0.801377C1.70567 0.682654 1.53221 0.608452 1.37321 0.638133H0.679376ZM2.63077 1.2169C2.63077 1.46919 2.5585 1.70664 2.42841 1.9144C2.28386 2.12216 2.08149 2.28541 1.83576 2.35961L2.61632 4.00688H1.87912L1.12747 2.43381H0.66492V4.00688H0V0H1.3443C1.54666 0 1.74903 0.0296802 1.9514 0.103882C2.1104 0.163243 2.24049 0.252285 2.35613 0.371008C2.44286 0.48973 2.51514 0.608452 2.5585 0.756856C2.61632 0.905259 2.64523 1.05366 2.63077 1.2169Z" transform="translate(15.3038 13.0078)" fill="white"></path> <path d="M0.664919 3.36875H1.02629C1.19975 3.36875 1.37321 3.32423 1.51775 3.25003C1.6623 3.17583 1.77794 3.0571 1.85021 2.92354C1.92249 2.78998 1.98031 2.64157 2.02367 2.49317C2.06704 2.32993 2.08149 2.16669 2.08149 2.00344C2.09594 1.66211 2.00922 1.33563 1.83576 1.03882C1.67676 0.771696 1.38766 0.623293 1.08411 0.623293H0.664919V3.36875ZM0 4.00688V0H0.982926C1.2142 0 1.44548 0.0296799 1.67675 0.118722C1.86467 0.192923 2.03812 0.281965 2.18267 0.415528C2.32722 0.549091 2.4284 0.697494 2.51513 0.860737C2.60186 1.03882 2.67414 1.21691 2.7175 1.40983C2.76087 1.60275 2.77532 1.79568 2.77532 2.00344C2.77532 2.19637 2.74641 2.37445 2.7175 2.56737C2.67414 2.7603 2.61632 2.93838 2.52959 3.11646C2.44286 3.29455 2.32722 3.44295 2.19713 3.57651C2.05258 3.72492 1.86467 3.8288 1.67675 3.88816C1.44548 3.9772 1.19975 4.00688 0.968471 4.00688H0Z" transform="translate(21.1868 13.0078)" fill="white"></path> <path d="M1.15638 2.50801H2.03813L1.69121 1.32079C1.64785 1.17238 1.61894 1.02398 1.59003 0.875578C1.54666 1.11302 1.51775 1.26143 1.48884 1.32079L1.15638 2.50801ZM2.48622 4.00688L2.22604 3.11646H0.982927L0.72274 4.00688H0L1.27202 0H1.89358L3.1656 4.00688H2.48622Z" transform="translate(24.4247 13.0078)" fill="white"></path> <path d="M1.12747 4.00688V0.652974H0V0H2.93432V0.652974H1.7924V4.00688H1.12747Z" transform="translate(27.8938 13.0078)" fill="white"></path> <path d="M1.14193 2.50801H2.02367L1.67675 1.32079C1.63339 1.17238 1.60448 1.02398 1.57557 0.875578C1.53221 1.11302 1.5033 1.26143 1.47439 1.32079L1.14193 2.50801ZM2.47177 4.00688L2.21158 3.11646H0.968471L0.708284 4.00688H0L1.27202 0H1.89358L3.1656 4.00688H2.47177Z" transform="translate(30.8715 13.0078)" fill="white"></path> <path d="M0 4.00688V0H0.650466L1.2142 2.19637C1.27202 2.38929 1.30093 2.52285 1.31538 2.59705C1.32984 2.46349 1.35875 2.32993 1.41657 2.19637L1.99476 0H2.60186V4.00688H2.02367V1.82536C2.02367 1.72148 2.02367 1.60275 2.03812 1.49887L1.93694 1.82536L1.34429 4.00688H1.27202L0.679373 1.82536L0.578192 1.49887C0.592647 1.60275 0.592643 1.72148 0.592643 1.82536V4.00688H0Z" transform="translate(38.3735 13.0078)" fill="#049C73"></path> <path d="M1.15638 2.50801H2.03812L1.69121 1.32079C1.64784 1.17238 1.61894 1.02398 1.59003 0.875578C1.54666 1.11302 1.51775 1.26143 1.48884 1.32079L1.15638 2.50801ZM2.47177 4.00688L2.21158 3.11646H0.968469L0.708284 4.00688H0L1.27202 0H1.89357L3.1656 4.00688H2.47177Z" transform="translate(41.6259 13.0078)" fill="#049C73"></path> <path d="M1.12747 4.00688V0.652974H0V0H2.93432V0.652974H1.79239V4.00688H1.12747Z" transform="translate(44.8638 13.0078)" fill="#049C73"></path> <path d="M1.12747 4.00688V0.652974H0V0H2.93432V0.652974H1.79239V4.00688H1.12747Z" transform="translate(48.1884 13.0078)" fill="#049C73"></path> <path d="M0 4.00688V0H2.50068V0.652974H0.664921V1.61759H1.86467V2.27057H0.664921V3.36875H2.61632V4.00688H0Z" transform="translate(51.6863 13.0078)" fill="#049C73"></path> <path d="M0.664921 0.638133V1.79568H1.35875C1.51776 1.81052 1.69121 1.75116 1.80685 1.63243C1.89358 1.51371 1.9514 1.36531 1.93695 1.2169C1.93695 1.0685 1.89358 0.920099 1.80685 0.801377C1.69121 0.682654 1.51776 0.608452 1.35875 0.638133H0.664921ZM2.63077 1.2169C2.63077 1.46919 2.5585 1.70664 2.42841 1.9144C2.28386 2.12216 2.08149 2.28541 1.83576 2.35961L2.61632 4.00688H1.87912L1.12748 2.43381H0.664921V4.00688H0V0H1.3443C1.54667 0 1.74903 0.0296802 1.9514 0.103882C2.1104 0.163243 2.2405 0.252285 2.35613 0.371008C2.44286 0.48973 2.51514 0.608452 2.5585 0.756856C2.60187 0.905259 2.63077 1.05366 2.63077 1.2169Z" transform="translate(55.011 13.0078)" fill="#049C73"></path> <path d="M1.38766 4.18226C1.08411 4.18226 0.780561 4.09322 0.534829 3.90029C0.289098 3.70737 0.101184 3.45508 0 3.14344L0.607103 2.90599C0.679377 3.08408 0.809469 3.24732 0.954017 3.3512C1.09857 3.45508 1.27202 3.51444 1.44548 3.51444C1.59003 3.52928 1.74903 3.46992 1.86467 3.38088C2.06703 3.18796 2.08149 2.87631 1.89358 2.66855C1.86467 2.63887 1.83576 2.62403 1.80685 2.59434C1.61894 2.46078 1.43102 2.34206 1.2142 2.25302C1.0552 2.17882 0.925109 2.11945 0.823925 2.06009C0.708287 2.00073 0.607101 1.92653 0.491462 1.83749C0.375824 1.74845 0.289097 1.62973 0.231278 1.49616C0.173458 1.3626 0.144548 1.2142 0.144548 1.06579C0.144548 0.783827 0.260189 0.501862 0.477011 0.308937C0.954019 -0.0769106 1.60448 -0.106591 2.09595 0.249576C2.29831 0.397979 2.45732 0.620584 2.52959 0.858029L1.93694 1.06579C1.83576 0.813508 1.59003 0.635424 1.31539 0.650264C1.18529 0.650264 1.0552 0.679945 0.954017 0.768987C0.838379 0.872869 0.780561 1.02127 0.823925 1.18451C0.83838 1.2142 0.838378 1.24388 0.867288 1.25872L0.925106 1.33292C0.954016 1.3626 0.96847 1.37744 0.99738 1.40712L1.08411 1.46648C1.11302 1.48132 1.15639 1.511 1.19975 1.52584C1.24312 1.55552 1.28648 1.57036 1.31539 1.5852C1.3443 1.60004 1.38766 1.61488 1.44548 1.64457L1.57557 1.70393C1.70566 1.76329 1.83576 1.83749 1.96585 1.91169C2.08149 1.98589 2.19713 2.07493 2.31277 2.16398C2.42841 2.26786 2.52959 2.38658 2.60186 2.53498C2.67414 2.68339 2.70305 2.83179 2.70305 2.99503C2.7175 3.33636 2.57295 3.64801 2.32722 3.87061C2.06704 4.09322 1.74903 4.1971 1.40212 4.1971" transform="translate(58.061 12.9065)" fill="#049C73"></path></svg>