<svg width="62" height="37" viewBox="0 0 62 37" fill="none" xmlns="http://www.w3.org/2000/svg" class="u:ml-2"><path d="M0.142689 25.3591H1.633C2.10863 25.3591 2.56841 24.7956 2.56841 24.3609V12.3498C2.56841 11.899 2.09278 11.271 1.633 11.271H0V7.77718H7.404C8.03818 7.77718 8.33941 8.42121 8.33941 9.99908V24.3609C8.33941 24.8439 8.84675 25.3591 9.32238 25.3591H10.8127V28.6598H0.142689V25.3591ZM2.29889 3.07579C2.34645 1.33691 3.75749 -0.0316446 5.46977 0.000556771C7.13448 0.0327581 8.46625 1.38522 8.49796 3.07579C8.49796 4.78246 7.11862 6.13491 5.40635 6.13491C3.69407 6.13491 2.29889 4.79856 2.29889 3.07579Z" transform="translate(0.657837 0.416504)" fill="#049C73"></path> <path d="M0 10.8197C0 4.08957 4.70875 0 10.9237 0C14.1421 0 15.9812 0.756732 17.2337 1.43296V5.76404H15.0458C14.2214 4.97511 12.7786 4.25058 10.9395 4.25058C7.95891 4.25058 5.80271 6.47247 5.80271 10.8519C5.80271 15.3439 7.83207 17.2599 10.781 17.2599C13.2067 17.2599 14.5068 16.4227 15.3629 15.5855H17.3289V19.5623C16.0764 20.3996 13.8409 21.4783 10.67 21.4783C3.9636 21.4783 0 17.5014 0 10.8197Z" transform="translate(12.7865 7.87183)" fill="#049C73"></path> <path d="M0 10.8519C0 4.12177 4.70875 0 10.4956 0C16.2825 0 20.9912 4.13787 20.9912 10.8519C20.9912 17.5336 16.2983 21.4783 10.4956 21.4783C4.6929 21.4783 0 17.5336 0 10.8519ZM15.2044 10.8841C15.2044 6.34367 13.286 4.12177 10.4956 4.12177C7.72109 4.12177 5.80271 6.34367 5.80271 10.8841C5.80271 15.3761 7.72109 17.3243 10.4956 17.3243C13.2701 17.3243 15.2044 15.3761 15.2044 10.8841Z" transform="translate(32.1447 7.88794)" fill="#049C73"></path> <path d="M0 3.18912C0.0317088 1.38585 1.50616 -0.0471159 3.28186 0.00118616C5.00999 0.0333875 6.38932 1.45025 6.42103 3.18912C6.42103 4.9763 4.96242 6.37706 3.20258 6.37706C1.41104 6.37706 0 4.9763 0 3.18912Z" transform="translate(54.7373 22.9409)" fill="#049C73"></path> <path d="M0 2.94642H0.507341V0.0483025H0V2.94642ZM2.26718 0.740632C1.9818 0.740632 1.71227 0.837236 1.49031 1.01434C1.47446 0.837236 1.41104 0.772833 1.31591 0.772833H1.03054V2.96253H1.50617V1.35246C1.68057 1.23975 1.88667 1.17535 2.09278 1.15925C2.28303 1.15925 2.37816 1.20755 2.37816 1.46516V2.96253H2.85379V1.35246C2.83794 0.869438 2.56841 0.740632 2.26718 0.740632ZM3.9636 0.0161017C3.6148 0.0161017 3.36113 0.209309 3.36113 0.611826V0.756734H3.10746V1.11095H3.36113V2.94642H3.83676V1.11095H4.26483V0.756734H3.83676V0.627928C3.83676 0.418619 3.91604 0.386418 4.09043 0.386418H4.29654V0.0805034H4.28069C4.18556 0.0322013 4.07458 0.0161017 3.9636 0.0161017ZM5.39049 0.72453C4.80388 0.72453 4.35996 1.17535 4.35996 1.85158C4.35996 2.54391 4.80388 2.96253 5.39049 2.96253C5.97711 2.96253 6.42103 2.54391 6.42103 1.85158C6.42103 1.17535 5.97711 0.72453 5.39049 0.72453ZM5.39049 2.59221C5.05755 2.59221 4.83559 2.3668 4.83559 1.85158C4.83559 1.33636 5.05755 1.09485 5.39049 1.09485C5.72344 1.09485 5.9454 1.35246 5.9454 1.85158C5.9454 2.3507 5.73929 2.59221 5.39049 2.59221ZM7.81622 0.740632C7.59426 0.740632 7.38815 0.837236 7.24546 1.01434C7.2296 0.821135 7.16619 0.756732 7.07106 0.772833H6.78568V2.96253H7.26131V1.40076C7.41986 1.25585 7.62596 1.17535 7.84793 1.17535H7.91134H7.94305V0.772833H7.9272C7.87963 0.740632 7.84793 0.740632 7.81622 0.740632ZM10.7017 0.72453C10.4163 0.740631 10.1468 0.837236 9.94071 1.01434C9.86143 0.821135 9.65533 0.692329 9.44922 0.72453C9.19555 0.72453 8.94188 0.821135 8.73577 0.982142C8.71992 0.805035 8.6565 0.740633 8.56137 0.756734H8.27599V2.94642H8.75163V1.32026C8.91017 1.20755 9.08457 1.14315 9.29068 1.12705C9.46507 1.12705 9.54435 1.19145 9.5602 1.41686V2.93033H10.0358V1.30416C10.1944 1.19145 10.3846 1.12705 10.5749 1.11095C10.7493 1.11095 10.8286 1.17535 10.8444 1.40076V2.91422H11.2408V1.28805C11.2408 0.869437 10.9871 0.72453 10.7017 0.72453ZM12.5091 0.72453C12.2396 0.72453 11.9859 0.788935 11.7481 0.917741H11.7164V1.27195H11.8908H11.9066C12.0652 1.15925 12.2554 1.09485 12.4616 1.11095C12.7311 1.11095 12.8421 1.20755 12.8421 1.44906V1.69057C12.6994 1.65837 12.5567 1.64227 12.414 1.64227C11.9384 1.64227 11.5737 1.86768 11.5737 2.3185C11.5737 2.75322 11.8591 2.97863 12.2554 2.97863C12.4774 2.99473 12.6994 2.91422 12.8579 2.75322C12.8738 2.88202 12.9847 2.96253 13.0957 2.96253H13.1116H13.3018V1.43296C13.3177 0.91774 13.0006 0.72453 12.5091 0.72453ZM12.8421 2.399C12.7311 2.54391 12.5725 2.62441 12.3981 2.62441C12.1762 2.62441 12.0493 2.52781 12.0335 2.2863C12.0335 2.04479 12.2079 1.96428 12.4774 1.96428C12.6042 1.96428 12.7152 1.98038 12.8262 1.99649V2.399H12.8421ZM14.3165 2.3346V1.11095H14.7763V0.756734H14.3165V0.177108H13.8409V0.756734H13.5872V1.11095H13.8409V2.3829C13.8409 2.80152 14.0628 2.96253 14.4275 2.96253C14.5385 2.96253 14.6495 2.94642 14.7604 2.91422H14.7763V2.59221H14.5543C14.3799 2.59221 14.3165 2.56001 14.3165 2.3346ZM15.3788 0.756734H15.1409V2.94642H15.6007V1.11095C15.6166 1.01434 15.6007 0.917741 15.569 0.837237C15.5373 0.772834 15.458 0.756734 15.3788 0.756734ZM15.3629 0.0483025C15.2202 0.0483025 15.0934 0.177107 15.0934 0.322014C15.1092 0.46692 15.2361 0.579625 15.3788 0.579625C15.5056 0.563525 15.6166 0.46692 15.6324 0.322014C15.6324 0.177107 15.5215 0.0483025 15.3629 0.0483025ZM16.9959 0.72453C16.4093 0.72453 15.9654 1.17535 15.9654 1.85158C15.9654 2.52781 16.4093 2.96253 16.9959 2.96253C17.5825 2.96253 18.0264 2.54391 18.0264 1.85158C18.0264 1.17535 17.5667 0.72453 16.9959 0.72453ZM17.535 1.86768C17.535 2.3668 17.3289 2.60831 16.9801 2.60831C16.6313 2.60831 16.4252 2.3829 16.4252 1.86768C16.4252 1.36856 16.6471 1.11095 16.9801 1.11095C17.313 1.09485 17.5508 1.36856 17.535 1.86768ZM19.6119 0.72453C19.3265 0.72453 19.057 0.821136 18.835 0.998244C18.8192 0.821136 18.7557 0.756734 18.6606 0.756734H18.3752V2.94642H18.8509V1.33636C19.0253 1.22365 19.2314 1.15925 19.4375 1.14315C19.6277 1.14315 19.7229 1.19145 19.7229 1.44906V2.94642H20.1985V1.33636C20.1668 0.869437 19.8973 0.72453 19.6119 0.72453ZM23.4011 2.2702C23.2267 2.4634 22.973 2.57611 22.7035 2.56001C22.212 2.56001 21.9266 2.20579 21.9108 1.46516C21.9108 0.756733 22.2437 0.402517 22.7193 0.402517C22.9413 0.386416 23.1633 0.466921 23.3218 0.627928L23.3377 0.644027H23.5438V0.257612L23.5279 0.24151C23.2901 0.0805034 22.9889 9.82467e-07 22.7035 0.0161017C21.9583 0.0161017 21.3876 0.563524 21.3876 1.49736C21.3876 2.4312 21.8949 2.97863 22.6559 2.97863C22.9889 2.99473 23.306 2.88202 23.5438 2.67271L23.5596 2.65661V2.2702H23.4011ZM24.8597 0.72453C24.2731 0.72453 23.8292 1.17535 23.8292 1.85158C23.8292 2.54391 24.2731 2.96253 24.8597 2.96253C25.4463 2.96253 25.8902 2.54391 25.8902 1.85158C25.8902 1.15925 25.4463 0.72453 24.8597 0.72453ZM24.8597 2.59221C24.5267 2.59221 24.3048 2.3668 24.3048 1.85158C24.3048 1.35246 24.5267 1.09485 24.8597 1.09485C25.1926 1.09485 25.4146 1.35246 25.4146 1.85158C25.4146 2.3507 25.1926 2.59221 24.8597 2.59221ZM28.6965 0.740632C28.4111 0.756733 28.1416 0.853337 27.9354 1.03044C27.8562 0.837237 27.6501 0.708431 27.444 0.740632C27.1903 0.756733 26.9366 0.837237 26.7305 0.998244C26.7147 0.821136 26.6512 0.756732 26.5561 0.772833H26.2707V2.96253H26.7464V1.33636C26.9049 1.22365 27.0793 1.15925 27.2854 1.14315C27.4598 1.14315 27.5391 1.20755 27.5391 1.43296V2.94642H28.0147V1.32026C28.1733 1.20755 28.3635 1.14315 28.5538 1.12705C28.744 1.12705 28.8074 1.19145 28.8233 1.41686V2.93033H29.2831V1.30416C29.2355 0.869438 28.9818 0.724531 28.6965 0.740632ZM32.1527 0.72453C31.8673 0.740631 31.5978 0.837236 31.3917 1.01434C31.3124 0.821135 31.1063 0.692329 30.9002 0.72453C30.6307 0.72453 30.377 0.821135 30.1709 0.982142C30.1551 0.805035 30.0916 0.756734 29.9965 0.756734H29.7111V2.94642H30.1868V1.32026C30.3453 1.20755 30.5197 1.14315 30.7258 1.12705C30.9002 1.12705 30.9795 1.19145 30.9953 1.41686V2.93033H31.471V1.30416C31.6295 1.19145 31.8198 1.12705 32.01 1.11095C32.1844 1.11095 32.2637 1.17535 32.2795 1.40076V2.91422H32.7393V1.30416C32.6918 0.869438 32.4222 0.72453 32.1527 0.72453ZM33.4211 0.756734H33.1674V2.94642H33.643V1.11095C33.6589 1.01434 33.643 0.917741 33.6113 0.837237C33.5638 0.756734 33.5003 0.756734 33.4211 0.756734ZM33.3894 0.0322033C33.2467 0.0161026 33.1198 0.128806 33.104 0.289813C33.0881 0.434719 33.1991 0.563525 33.3576 0.579625C33.3735 0.579625 33.3894 0.579625 33.3894 0.579625C33.532 0.579625 33.6589 0.466921 33.6589 0.305914C33.6747 0.161008 33.5479 0.0322033 33.3894 0.0322033ZM34.848 1.61007C34.515 1.56177 34.4357 1.49736 34.4357 1.35246C34.4357 1.20755 34.5309 1.11095 34.8004 1.11095C34.9589 1.11095 35.1333 1.15925 35.2602 1.25585H35.276H35.4504V0.885537H35.4346C35.2443 0.772832 35.0224 0.724531 34.8004 0.740632C34.3406 0.740632 34.0235 0.966043 34.0235 1.40076C34.0235 1.83548 34.2772 1.99649 34.7053 2.04479C35.0382 2.10919 35.1175 2.15749 35.1175 2.3185C35.1175 2.49561 35.0065 2.59221 34.7053 2.59221C34.515 2.59221 34.3406 2.52781 34.1979 2.4151L34.1821 2.399H34.0077V2.76932L34.0235 2.78542C34.2296 2.91422 34.4675 2.99473 34.7211 2.97863C35.276 2.97863 35.5456 2.70492 35.5456 2.2863C35.5456 1.86768 35.3077 1.67447 34.848 1.61007ZM36.6395 1.61007C36.3066 1.56177 36.2273 1.49736 36.2273 1.35246C36.2273 1.20755 36.3224 1.11095 36.5919 1.11095C36.7505 1.11095 36.9249 1.15925 37.0517 1.25585H37.2261V0.885537H37.2103C37.02 0.772832 36.798 0.724531 36.5761 0.740632C36.1005 0.740632 35.7992 0.966042 35.7992 1.38466C35.7992 1.80328 36.0529 1.98038 36.481 2.02869C36.8139 2.09309 36.8932 2.14139 36.8932 2.3024C36.8932 2.4795 36.7822 2.57611 36.481 2.57611C36.2907 2.57611 36.1163 2.51171 35.9736 2.399L35.9578 2.3829H35.7834V2.75322L35.7992 2.76932C36.0053 2.89812 36.2431 2.97863 36.4968 2.96253C37.0517 2.96253 37.3212 2.68881 37.3212 2.2702C37.3371 1.86768 37.0993 1.69057 36.6395 1.61007ZM37.9396 0.0483025C37.7969 0.0483025 37.67 0.177107 37.67 0.322014C37.67 0.46692 37.7969 0.595727 37.9396 0.595727C38.0823 0.595727 38.2091 0.46692 38.2091 0.322014C38.2091 0.177107 38.0823 0.0483025 37.9396 0.0483025ZM37.9554 0.772833H37.7017V2.96253H38.1774V1.12705C38.1932 1.03044 38.1774 0.93384 38.1457 0.853336C38.0981 0.772833 38.0347 0.772833 37.9554 0.772833ZM39.5567 0.740632C38.9701 0.740632 38.5262 1.19145 38.5262 1.86768C38.5262 2.56001 38.9701 2.97863 39.5567 2.97863C40.1433 2.97863 40.5872 2.56001 40.5872 1.86768C40.5872 1.17535 40.1433 0.740632 39.5567 0.740632ZM40.1116 1.86768C40.1116 2.3668 39.9055 2.60831 39.5567 2.60831C39.2079 2.60831 39.0018 2.3829 39.0018 1.86768C39.0018 1.36856 39.2238 1.11095 39.5567 1.11095C39.8897 1.11095 40.1116 1.36856 40.1116 1.86768ZM42.1727 0.740632C41.8873 0.740632 41.6178 0.837236 41.3958 1.01434C41.38 0.837236 41.3166 0.772833 41.2214 0.772833H40.936V2.96253H41.4117V1.35246C41.5861 1.23975 41.7922 1.17535 41.9983 1.15925C42.1885 1.15925 42.2837 1.20755 42.2837 1.46516V2.96253H42.7593V1.35246C42.7434 0.869438 42.4739 0.740632 42.1727 0.740632ZM44.0594 0.740632C43.5045 0.740632 43.0764 1.19145 43.0764 1.86768C43.0764 2.56001 43.441 2.97863 44.1069 2.97863C44.3923 2.99473 44.6618 2.91422 44.8996 2.75322L44.9155 2.73711V2.399H44.7411H44.7252C44.5667 2.52781 44.3764 2.59221 44.1703 2.59221C43.8057 2.59221 43.5996 2.4312 43.5679 1.96428H44.9948V1.93208C44.9948 1.91598 44.9948 1.83548 44.9948 1.78718C44.9789 1.07875 44.646 0.724531 44.0594 0.740632ZM43.5837 1.62617C43.6313 1.20755 43.8215 1.07875 44.0752 1.07875C44.3289 1.07875 44.5033 1.20755 44.5191 1.62617H43.5837ZM46.3741 0.740632C46.1521 0.740632 45.946 0.837236 45.8033 1.01434C45.7875 0.821135 45.7241 0.756732 45.6289 0.772833H45.3277V2.96253H45.8033V1.40076C45.9619 1.25585 46.168 1.17535 46.39 1.17535H46.4851H46.5168V0.772833H46.5009C46.4375 0.740632 46.4058 0.740632 46.3741 0.740632ZM47.0717 0.0161017C46.9449 9.82467e-07 46.818 0.112705 46.818 0.24151C46.818 0.24151 46.818 0.241511 46.818 0.257612C46.818 0.338115 46.8497 0.418619 46.9132 0.466921C46.9766 0.515223 47.0083 0.515223 47.0083 0.547424C47.0083 0.595726 46.9607 0.644028 46.8339 0.660129H46.8022V0.917741H46.8339C47.1193 0.917741 47.3571 0.692329 47.3571 0.402517C47.3571 0.386416 47.3571 0.354216 47.3571 0.338115C47.3571 0.128806 47.2302 0.0161017 47.0717 0.0161017ZM48.2608 1.61007C47.9278 1.56177 47.8486 1.49736 47.8486 1.35246C47.8486 1.20755 47.9437 1.11095 48.2132 1.11095C48.3718 1.11095 48.5462 1.15925 48.673 1.25585H48.8474V0.885537L48.8315 0.869438C48.6413 0.756733 48.4193 0.70843 48.1974 0.72453C47.7217 0.72453 47.4205 0.94994 47.4205 1.36856C47.4205 1.78718 47.6742 1.96428 48.1022 2.01258C48.4352 2.07699 48.5144 2.12529 48.5144 2.2863C48.5144 2.46341 48.4035 2.56001 48.1022 2.56001C47.912 2.56001 47.7376 2.49561 47.5949 2.3829L47.579 2.3668H47.4046V2.73711L47.4205 2.75322C47.6266 2.88202 47.8644 2.94642 48.1181 2.94642C48.673 2.94642 48.9425 2.67271 48.9425 2.25409C48.9584 1.85158 48.7206 1.67447 48.2608 1.61007ZM51.3682 0.0161017C50.6706 0.0161017 50.0682 0.547423 50.0682 1.49736C50.0682 2.4473 50.6706 2.97863 51.3682 2.97863C52.0658 2.97863 52.6524 2.4473 52.6683 1.49736C52.6683 0.547423 52.0658 0.0161017 51.3682 0.0161017ZM51.3682 2.57611C50.9085 2.57611 50.5914 2.2541 50.5755 1.49736C50.5755 0.756732 50.9085 0.402517 51.3682 0.402517C51.8122 0.402517 52.161 0.756732 52.161 1.49736C52.161 2.23799 51.8122 2.57611 51.3682 2.57611ZM53.7305 0.0161017C53.3817 0.0161017 53.1281 0.209309 53.1281 0.611826V0.756734H52.8744V1.11095H53.1281V2.94642H53.6037V1.11095H54.0318V0.756734H53.6037V0.627928C53.6037 0.418619 53.683 0.386418 53.8574 0.386418H54.0635V0.0805034H54.0476C53.9366 0.0161007 53.8257 9.82467e-07 53.7305 0.0161017ZM54.9989 0C54.6501 0 54.3964 0.19321 54.3964 0.595727V0.740632H54.1428V1.09485H54.3964V2.93033H54.8721V1.09485H55.316V0.740632H54.8879V0.611826C54.8879 0.402517 54.9672 0.370316 55.1416 0.370316H55.316V0.0483025H55.3001C55.1891 0.0161012 55.1099 0 54.9989 0ZM55.8233 0.756734H55.5697V2.94642H56.0453V1.12705C56.0611 1.03044 56.0453 0.93384 56.0136 0.853336C55.966 0.772833 55.9026 0.756734 55.8233 0.756734ZM55.8075 0.0483025C55.6648 0.0483025 55.5379 0.177107 55.5379 0.322014C55.5379 0.46692 55.6648 0.595727 55.8075 0.595727C55.9502 0.595727 56.077 0.46692 56.077 0.322014C56.077 0.177107 55.9502 0.0483025 55.8075 0.0483025ZM57.932 2.399C57.8051 2.52781 57.6307 2.60831 57.4405 2.59221C57.0917 2.59221 56.8697 2.3668 56.8697 1.85158C56.8697 1.35246 57.1075 1.11095 57.4563 1.11095C57.6149 1.11095 57.7734 1.15925 57.9002 1.27195V1.28805H58.1064V0.917741H58.0905C57.9002 0.788935 57.6783 0.740632 57.4405 0.740632C56.838 0.740632 56.3782 1.17535 56.3782 1.86768C56.3782 2.56001 56.7746 2.97863 57.4246 2.97863C57.6783 2.97863 57.9161 2.91422 58.1064 2.75322L58.1222 2.73711V2.399H57.932ZM59.3271 0.740632C58.7722 0.740632 58.3442 1.19145 58.3442 1.86768C58.3442 2.56001 58.7088 2.97863 59.3747 2.97863C59.6601 2.99473 59.9296 2.91422 60.1674 2.75322L60.1833 2.73711V2.399H60.0089C59.8503 2.52781 59.6442 2.59221 59.454 2.59221C59.0893 2.59221 58.8832 2.4312 58.8515 1.96428H60.2626V1.93208C60.2626 1.91598 60.2626 1.83548 60.2626 1.78718C60.215 1.07875 59.882 0.724531 59.3271 0.740632ZM58.8198 1.62617C58.8674 1.20755 59.0576 1.07875 59.3113 1.07875C59.565 1.07875 59.7394 1.20755 59.7552 1.62617H58.8198Z" transform="translate(0.911621 33.311)" fill="#049C73"></path></svg>