<svg width="367" height="173" viewBox="0 0 367 173" fill="none" xmlns="http://www.w3.org/2000/svg">
    <path
        d="M58.4999 44.5199H50.1499V40.2399C50.1499 38.5929 49.4956 37.0134 48.331 35.8488C47.1664 34.6842 45.5869 34.0299 43.9399 34.0299C42.2929 34.0299 40.7134 34.6842 39.5487 35.8488C38.3841 37.0134 37.7299 38.5929 37.7299 40.2399V44.5199H29.3799V40.2399C29.3799 36.3784 30.9139 32.675 33.6444 29.9445C36.3749 27.2139 40.0783 25.6799 43.9399 25.6799C47.8014 25.6799 51.5048 27.2139 54.2354 29.9445C56.9659 32.675 58.4999 36.3784 58.4999 40.2399V44.5199Z"
        fill="#FFA400"></path>
    <path
        d="M61.87 44.52H26C25.2608 44.5227 24.5527 44.8174 24.03 45.3401C23.5074 45.8628 23.2126 46.5709 23.21 47.31V73.83C23.2152 74.5674 23.5112 75.273 24.0336 75.7935C24.5559 76.314 25.2625 76.6074 26 76.61H61.87C62.6065 76.6074 63.312 76.3136 63.8328 75.7929C64.3536 75.2721 64.6473 74.5665 64.65 73.83V47.31C64.6473 46.5726 64.3539 45.866 63.8334 45.3436C63.3129 44.8212 62.6074 44.5253 61.87 44.52V44.52ZM45.76 61.94V65.53C45.7785 65.7797 45.7453 66.0305 45.6625 66.2668C45.5797 66.5031 45.4491 66.7197 45.2787 66.9032C45.1084 67.0867 44.902 67.233 44.6725 67.3331C44.443 67.4332 44.1953 67.4848 43.945 67.4848C43.6946 67.4848 43.4469 67.4332 43.2174 67.3331C42.9879 67.233 42.7816 67.0867 42.6112 66.9032C42.4409 66.7197 42.3102 66.5031 42.2274 66.2668C42.1446 66.0305 42.1114 65.7797 42.13 65.53V61.94C41.4201 61.539 40.8631 60.9142 40.5458 60.1633C40.2286 59.4123 40.1689 58.5774 40.3763 57.7889C40.5836 57.0005 41.0462 56.3028 41.6918 55.805C42.3374 55.3072 43.1297 55.0373 43.945 55.0373C44.7602 55.0373 45.5525 55.3072 46.1981 55.805C46.8438 56.3028 47.3063 57.0005 47.5137 57.7889C47.721 58.5774 47.6613 59.4123 47.3441 60.1633C47.0268 60.9142 46.4698 61.539 45.76 61.94V61.94Z"
        fill="#003A70"></path>
    <path
        d="M22.3799 40.57H13.7299C13.0563 40.57 12.4102 40.3024 11.9339 39.826C11.4575 39.3497 11.1899 38.7036 11.1899 38.03C11.1899 37.3563 11.4575 36.7103 11.9339 36.2339C12.4102 35.7576 13.0563 35.49 13.7299 35.49H22.3799C23.0536 35.49 23.6997 35.7576 24.176 36.2339C24.6523 36.7103 24.9199 37.3563 24.9199 38.03C24.9199 38.7036 24.6523 39.3497 24.176 39.826C23.6997 40.3024 23.0536 40.57 22.3799 40.57V40.57Z"
        fill="#FFA400"></path>
    <path
        d="M28.48 26.9999C27.8892 26.9993 27.3169 26.7944 26.86 26.4199L20 20.7499C19.7363 20.5399 19.5171 20.2795 19.3551 19.9839C19.193 19.6883 19.0915 19.3634 19.0563 19.0281C19.0212 18.6928 19.0531 18.3539 19.1503 18.0311C19.2474 17.7083 19.4078 17.4081 19.6222 17.1479C19.8366 16.8878 20.1006 16.6729 20.3989 16.5158C20.6971 16.3587 21.0237 16.2626 21.3595 16.233C21.6953 16.2034 22.0336 16.2409 22.3548 16.3434C22.6759 16.4459 22.9734 16.6113 23.23 16.8299L30.07 22.4599C30.4879 22.7871 30.7928 23.2369 30.942 23.7462C31.0912 24.2555 31.077 24.7987 30.9016 25.2996C30.7262 25.8005 30.3983 26.2338 29.964 26.5388C29.5296 26.8438 29.0107 27.005 28.48 26.9999V26.9999Z"
        fill="#FFA400"></path>
    <path
        d="M43.9399 20.9999C43.2662 20.9999 42.6202 20.7323 42.1438 20.256C41.6675 19.7796 41.3999 19.1336 41.3999 18.4599V9.71993C41.3999 9.38637 41.4656 9.05608 41.5932 8.74792C41.7209 8.43975 41.908 8.15974 42.1438 7.92388C42.3797 7.68802 42.6597 7.50092 42.9679 7.37328C43.2761 7.24563 43.6063 7.17993 43.9399 7.17993C44.2735 7.17993 44.6038 7.24563 44.9119 7.37328C45.2201 7.50092 45.5001 7.68802 45.736 7.92388C45.9718 8.15974 46.1589 8.43975 46.2866 8.74792C46.4142 9.05608 46.4799 9.38637 46.4799 9.71993V18.4399C46.4825 18.7752 46.4188 19.1076 46.2923 19.4181C46.1659 19.7286 45.9792 20.0109 45.7431 20.2489C45.5069 20.4869 45.226 20.6758 44.9166 20.8047C44.6071 20.9336 44.2751 20.9999 43.9399 20.9999V20.9999Z"
        fill="#FFA400"></path>
    <path
        d="M59.4099 27C58.8873 26.9988 58.3777 26.8365 57.9506 26.535C57.5236 26.2336 57.2 25.8078 57.0239 25.3156C56.8479 24.8235 56.8279 24.289 56.9668 23.7851C57.1057 23.2812 57.3966 22.8324 57.7999 22.5L64.6399 16.87C64.8965 16.6513 65.194 16.4859 65.5152 16.3834C65.8363 16.2809 66.1747 16.2434 66.5105 16.273C66.8463 16.3026 67.1728 16.3987 67.4711 16.5558C67.7693 16.7129 68.0334 16.9278 68.2477 17.188C68.4621 17.4481 68.6225 17.7484 68.7197 18.0712C68.8168 18.394 68.8488 18.7329 68.8136 19.0681C68.7784 19.4034 68.6769 19.7283 68.5149 20.0239C68.3529 20.3195 68.1336 20.58 67.8699 20.79L60.9999 26.38C60.5586 26.766 59.9961 26.9854 59.4099 27V27Z"
        fill="#FFA400"></path>
    <path
        d="M74.1599 40.57H65.4199C64.7462 40.57 64.1002 40.3024 63.6238 39.826C63.1475 39.3497 62.8799 38.7036 62.8799 38.03C62.8799 37.3563 63.1475 36.7103 63.6238 36.2339C64.1002 35.7576 64.7462 35.49 65.4199 35.49H74.1599C74.8335 35.49 75.4796 35.7576 75.9559 36.2339C76.4323 36.7103 76.6999 37.3563 76.6999 38.03C76.6999 38.7036 76.4323 39.3497 75.9559 39.826C75.4796 40.3024 74.8335 40.57 74.1599 40.57Z"
        fill="#FFA400"></path>
    <path d="M85.52 76.6101V44.3301H93.36V69.8201H105.85V76.6101H85.52Z" fill="#003A70"></path>
    <path
        d="M131.67 65.53V66.45C131.686 66.7365 131.686 67.0236 131.67 67.31H115.17C115.221 67.9236 115.416 68.5164 115.74 69.04C116.071 69.5654 116.499 70.0234 117 70.39C117.51 70.778 118.081 71.0788 118.69 71.28C119.311 71.4915 119.963 71.5996 120.62 71.6C121.659 71.6313 122.69 71.4046 123.62 70.94C124.405 70.525 125.088 69.941 125.62 69.23L130.82 72.51C129.756 74.0563 128.299 75.2918 126.6 76.09C124.689 76.9559 122.608 77.383 120.51 77.34C118.866 77.3526 117.232 77.082 115.68 76.54C114.205 76.0412 112.845 75.2524 111.68 74.22C110.524 73.176 109.61 71.893 109 70.46C108.316 68.8444 107.976 67.1042 108 65.35C107.994 63.6331 108.334 61.9327 109 60.35C109.595 58.9088 110.48 57.6052 111.6 56.52C112.701 55.4343 114.006 54.5778 115.44 54C116.983 53.4188 118.621 53.1272 120.27 53.14C121.846 53.1215 123.411 53.4067 124.88 53.98C126.244 54.5194 127.474 55.3524 128.48 56.42C129.516 57.5422 130.315 58.8618 130.83 60.3C131.418 61.9797 131.702 63.7506 131.67 65.53ZM124.79 62.66C124.801 61.5558 124.402 60.4869 123.67 59.66C123.24 59.2132 122.717 58.8667 122.138 58.6455C121.559 58.4242 120.938 58.3336 120.32 58.38C119.638 58.3717 118.961 58.4869 118.32 58.72C117.738 58.935 117.199 59.2534 116.73 59.66C116.277 60.0483 115.904 60.5203 115.63 61.05C115.363 61.565 115.21 62.1309 115.18 62.71L124.79 62.66Z"
        fill="#003A70"></path>
    <path
        d="M143.62 59.4699V68.1699C143.558 69.0149 143.772 69.8571 144.23 70.5699C144.512 70.8643 144.858 71.0896 145.242 71.2283C145.625 71.3671 146.035 71.4155 146.44 71.3699C146.832 71.3683 147.223 71.3382 147.61 71.2799C147.954 71.2343 148.29 71.1435 148.61 71.0099L148.7 76.4799C148.047 76.6934 147.379 76.8539 146.7 76.9599C145.917 77.091 145.124 77.1579 144.33 77.1599C143.03 77.1937 141.734 77.0008 140.5 76.5899C139.546 76.2619 138.691 75.6937 138.02 74.9399C137.381 74.2005 136.919 73.3249 136.67 72.3799C136.387 71.2997 136.249 70.1866 136.26 69.0699V59.4699H132.62V53.9099H136.22V47.9099H143.56V53.9099H149V59.4699H143.62Z"
        fill="#003A70"></path>
    <path
        d="M173.16 60.61C172.52 60.0142 171.791 59.5216 171 59.15C170.188 58.7609 169.3 58.5592 168.4 58.56C167.731 58.5547 167.069 58.6946 166.46 58.97C166.183 59.0825 165.948 59.279 165.788 59.5319C165.628 59.7848 165.552 60.0815 165.57 60.38C165.565 60.686 165.66 60.9851 165.841 61.2322C166.021 61.4793 166.277 61.6611 166.57 61.75C167.602 62.1339 168.662 62.4381 169.74 62.66C170.62 62.849 171.483 63.1099 172.32 63.44C173.165 63.7596 173.957 64.2046 174.67 64.76C175.361 65.3041 175.933 65.985 176.35 66.76C176.797 67.6311 177.018 68.6011 176.99 69.58C177.041 70.7659 176.78 71.9444 176.233 72.9975C175.685 74.0506 174.87 74.9412 173.87 75.58C172.916 76.2004 171.86 76.6473 170.75 76.9C169.614 77.1737 168.449 77.3113 167.28 77.31C165.427 77.3124 163.586 77.0117 161.83 76.42C160.167 75.9015 158.648 75.0047 157.39 73.8L161.58 69.38C162.265 70.1409 163.086 70.7681 164 71.23C164.961 71.7143 166.023 71.9644 167.1 71.96C167.725 71.9594 168.342 71.8121 168.9 71.53C169.187 71.3963 169.426 71.1781 169.585 70.9046C169.744 70.6311 169.815 70.3154 169.79 70C169.791 69.6606 169.687 69.3293 169.491 69.0517C169.296 68.7741 169.02 68.5639 168.7 68.45C167.591 68.0182 166.447 67.6836 165.28 67.45C164.473 67.2664 163.68 67.0224 162.91 66.72C162.139 66.4321 161.422 66.0163 160.79 65.49C160.157 64.9623 159.637 64.3128 159.26 63.58C158.847 62.727 158.645 61.7874 158.67 60.84C158.634 59.6201 158.931 58.4135 159.53 57.35C160.104 56.4057 160.883 55.6025 161.81 55C162.727 54.3855 163.741 53.9292 164.81 53.65C165.89 53.3651 167.003 53.2205 168.12 53.22C169.819 53.2151 171.507 53.4853 173.12 54.02C174.656 54.5019 176.067 55.3181 177.25 56.41L173.16 60.61Z"
        fill="#003A70"></path>
    <path
        d="M190.38 76.6101V44.3301H212.08V50.9001H197.9V57.0001H211.31V63.2401H197.9V70.0001H212.9V76.6501L190.38 76.6101Z"
        fill="#003A70"></path>
    <path
        d="M232.61 76.61V64.21C232.614 63.5996 232.56 62.9902 232.45 62.39C232.357 61.856 232.182 61.3397 231.93 60.86C231.688 60.4466 231.343 60.1022 230.93 59.86C230.421 59.5841 229.848 59.4494 229.27 59.47C228.66 59.4557 228.056 59.5895 227.51 59.86C227.016 60.115 226.588 60.4813 226.26 60.93C225.912 61.4041 225.657 61.9403 225.51 62.51C225.338 63.1081 225.25 63.7275 225.25 64.35V76.61H217.7V53.91H225V57.05C225.302 56.5346 225.661 56.0549 226.07 55.62C226.521 55.1392 227.044 54.731 227.62 54.41C228.236 54.0686 228.886 53.7937 229.56 53.59C230.287 53.3739 231.042 53.266 231.8 53.27C233.137 53.2294 234.464 53.5106 235.67 54.09C236.678 54.5941 237.56 55.3186 238.25 56.21C238.914 57.1067 239.393 58.1264 239.66 59.21C239.945 60.3106 240.09 61.443 240.09 62.58V76.58L232.61 76.61Z"
        fill="#003A70"></path>
    <path
        d="M259.37 61.2501C258.913 60.6725 258.318 60.2187 257.64 59.9301C256.944 59.5973 256.182 59.4231 255.41 59.4201C254.666 59.4094 253.929 59.5738 253.26 59.9001C252.635 60.2162 252.078 60.651 251.62 61.1801C251.161 61.7204 250.799 62.3362 250.55 63.0001C250.287 63.714 250.155 64.4694 250.16 65.2301C250.158 65.9889 250.283 66.7428 250.53 67.4601C250.76 68.1418 251.124 68.7707 251.6 69.3101C252.068 69.8418 252.645 70.2679 253.29 70.5601C253.983 70.8772 254.738 71.0345 255.5 71.0201C256.274 71.019 257.04 70.8732 257.76 70.5901C258.458 70.3303 259.077 69.8965 259.56 69.3301L263.71 74.3901C262.665 75.3653 261.419 76.0993 260.06 76.5401C258.534 77.0577 256.932 77.3179 255.32 77.3101C253.619 77.3223 251.928 77.045 250.32 76.4901C248.841 75.9684 247.481 75.1558 246.32 74.1001C245.163 73.0333 244.243 71.7353 243.62 70.2901C242.934 68.6926 242.594 66.9684 242.62 65.2301C242.598 63.5116 242.939 61.8078 243.62 60.2301C244.243 58.7849 245.163 57.4869 246.32 56.4201C247.482 55.359 248.841 54.5367 250.32 54.0001C251.925 53.4312 253.617 53.147 255.32 53.1601C256.139 53.1569 256.956 53.2339 257.76 53.3901C258.52 53.5398 259.269 53.7437 260 54.0001C260.699 54.2646 261.369 54.5997 262 55.0001C262.585 55.3548 263.129 55.774 263.62 56.2501L259.37 61.2501Z"
        fill="#003A70"></path>
    <path
        d="M281.26 60.06C280.933 59.9708 280.598 59.9106 280.26 59.88C279.94 59.88 279.63 59.83 279.33 59.83C278.454 59.8034 277.586 59.9923 276.8 60.38C276.166 60.6986 275.607 61.1486 275.16 61.7C274.759 62.1979 274.457 62.7682 274.27 63.38C274.099 63.9032 274.008 64.4495 274 65V76.61H266.53V53.94H273.73V57.22H273.82C274.385 56.077 275.232 55.0964 276.28 54.37C277.371 53.6313 278.663 53.2471 279.98 53.27C280.28 53.27 280.58 53.27 280.87 53.27C281.107 53.2972 281.341 53.344 281.57 53.41L281.26 60.06Z"
        fill="#003A70"></path>
    <path
        d="M298.81 79.9999C298.401 81.1024 297.889 82.1637 297.28 83.1699C296.748 84.0645 296.072 84.8653 295.28 85.5399C294.475 86.2124 293.544 86.7158 292.54 87.0199C291.337 87.3814 290.086 87.5535 288.83 87.5299C288.105 87.5265 287.38 87.4798 286.66 87.3899C286.005 87.3183 285.356 87.1945 284.72 87.0199L285.54 80.7299C285.936 80.8569 286.34 80.9571 286.75 81.0299C287.15 81.0977 287.554 81.1345 287.96 81.1399C288.41 81.1816 288.864 81.1332 289.295 80.9976C289.725 80.8619 290.125 80.6418 290.47 80.3499C291.056 79.6921 291.505 78.9237 291.79 78.0899L292.52 76.2199L283 53.9099H291.29L296.35 68.4999H296.49L301.01 53.9099H309L298.81 79.9999Z"
        fill="#003A70"></path>
    <path
        d="M336.2 65.1701C336.202 66.7193 335.955 68.2588 335.47 69.7301C335.008 71.1339 334.289 72.4395 333.35 73.5801C332.414 74.6961 331.256 75.6053 329.95 76.2501C328.529 76.9364 326.967 77.2789 325.39 77.2501C324.012 77.2608 322.647 76.9743 321.39 76.4101C320.233 75.9148 319.229 75.1211 318.48 74.1101H318.39V87.5601H310.91V53.9101H318.02V56.6901H318.16C318.949 55.7031 319.932 54.8894 321.05 54.3001C322.393 53.5964 323.895 53.2519 325.41 53.3001C326.956 53.2916 328.485 53.6335 329.88 54.3001C331.182 54.9154 332.338 55.8019 333.27 56.9001C334.215 58.0215 334.941 59.3105 335.41 60.7001C335.923 62.1351 336.19 63.6463 336.2 65.1701V65.1701ZM328.95 65.1701C328.947 64.4436 328.832 63.7218 328.61 63.0301C328.396 62.356 328.057 61.7284 327.61 61.1801C327.152 60.6367 326.587 60.1941 325.95 59.8801C325.222 59.536 324.425 59.3649 323.62 59.3801C322.831 59.3679 322.051 59.5391 321.34 59.8801C320.69 60.205 320.109 60.6533 319.63 61.2001C318.687 62.3197 318.17 63.7364 318.17 65.2001C318.17 66.6638 318.687 68.0805 319.63 69.2001C320.109 69.7469 320.69 70.1953 321.34 70.5201C322.051 70.8611 322.831 71.0323 323.62 71.0201C324.425 71.0353 325.222 70.8642 325.95 70.5201C326.59 70.2023 327.156 69.7524 327.61 69.2001C328.057 68.6336 328.396 67.9895 328.61 67.3001C328.845 66.6136 328.977 65.8956 329 65.1701H328.95Z"
        fill="#003A70"></path>
    <path
        d="M348.14 59.4699V68.1699C348.081 69.016 348.298 69.8583 348.76 70.5699C349.042 70.8649 349.388 71.0906 349.771 71.2294C350.154 71.3682 350.565 71.4163 350.97 71.3699C351.358 71.3679 351.746 71.3378 352.13 71.2799C352.475 71.2337 352.811 71.1394 353.13 70.9999L353.22 76.4799C352.567 76.6922 351.898 76.8527 351.22 76.9599C350.437 77.091 349.644 77.1579 348.85 77.1599C347.55 77.1945 346.254 77.0016 345.02 76.5899C344.063 76.2618 343.205 75.6937 342.53 74.9399C341.894 74.1997 341.436 73.3241 341.19 72.3799C340.902 71.3007 340.764 70.1868 340.78 69.0699V59.4699H337.2V53.9099H340.8V47.9099H348.14V53.9099H353.48V59.4699H348.14Z"
        fill="#003A70"></path>
    <path
        d="M155.81 43.7099C155.304 43.6844 154.798 43.7601 154.321 43.9327C153.845 44.1052 153.407 44.371 153.035 44.7147C152.662 45.0583 152.362 45.4728 152.152 45.9339C151.942 46.3949 151.825 46.8934 151.81 47.3999C151.789 47.885 151.871 48.3691 152.05 48.8206C152.228 49.2721 152.5 49.6809 152.847 50.0204C153.194 50.36 153.609 50.6227 154.064 50.7914C154.52 50.9602 155.005 51.0312 155.49 50.9999C155.66 51.0149 155.83 51.0149 156 50.9999C155.786 51.7692 155.356 52.4608 154.76 52.9926C154.164 53.5244 153.429 53.874 152.64 53.9999H152.34V57.4699H152.72C154.531 57.2853 156.23 56.5044 157.55 55.2499C158.414 54.3582 159.086 53.2997 159.526 52.139C159.967 50.9783 160.165 49.74 160.11 48.4999C160.13 45.7199 158.31 43.7099 155.81 43.7099Z"
        fill="#003A70"></path>
    <path d="M366.67 108.05H0V172.85H366.67V108.05Z" fill="#103A71"></path>
    <path
        d="M38 147.11C38.051 148.328 37.8131 149.542 37.3056 150.65C36.7981 151.759 36.0355 152.732 35.08 153.49C33.14 155.05 30.43 155.83 26.97 155.83C24.0458 155.89 21.1472 155.274 18.5 154.03V148.13C20.1584 148.887 21.8737 149.512 23.63 150C24.8821 150.343 26.1721 150.527 27.47 150.55C28.5936 150.62 29.7113 150.34 30.67 149.75C31.0405 149.481 31.3373 149.122 31.5331 148.708C31.7288 148.294 31.8171 147.837 31.79 147.38C31.7953 146.818 31.6238 146.269 31.3 145.81C30.9014 145.285 30.41 144.838 29.85 144.49C28.5993 143.744 27.3034 143.076 25.97 142.49C24.4988 141.84 23.1175 141.003 21.86 140C20.9627 139.226 20.2197 138.29 19.67 137.24C19.1058 136.093 18.8246 134.828 18.85 133.55C18.7957 132.374 19.0096 131.201 19.4757 130.12C19.9417 129.039 20.6477 128.078 21.54 127.31C23.6798 125.697 26.3257 124.903 29 125.07C30.5008 125.061 31.9965 125.246 33.45 125.62C34.9649 126.024 36.446 126.546 37.88 127.18L35.88 132.11C34.5792 131.563 33.2428 131.106 31.88 130.74C30.8731 130.485 29.8387 130.354 28.8 130.35C27.8083 130.284 26.8266 130.582 26.04 131.19C25.7181 131.455 25.4609 131.79 25.2876 132.17C25.1144 132.549 25.0297 132.963 25.04 133.38C25.0273 133.894 25.1626 134.401 25.43 134.84C25.7552 135.325 26.1774 135.737 26.67 136.05C27.9615 136.827 29.2971 137.528 30.67 138.15C32.8611 139.038 34.8258 140.404 36.42 142.15C37.4976 143.574 38.0552 145.325 38 147.11Z"
        fill="white"></path>
    <path d="M60.6599 155.42H43.4299V125.5H60.6599V130.7H49.7699V137.27H59.8999V142.46H49.7699V150.18H60.6599V155.42Z"
        fill="white"></path>
    <path
        d="M79.6101 130.35C78.5379 130.297 77.4694 130.512 76.5007 130.975C75.5319 131.437 74.6933 132.133 74.0601 133C72.7501 134.79 72.0601 137.3 72.0601 140.5C72.0601 147.167 74.5634 150.5 79.5701 150.5C82.192 150.426 84.7837 149.92 87.2401 149V154.32C84.6208 155.365 81.8198 155.878 79.0001 155.83C74.6468 155.83 71.3134 154.497 69.0001 151.83C66.6868 149.163 65.5434 145.387 65.5701 140.5C65.5085 137.683 66.0899 134.889 67.2701 132.33C68.3164 130.083 70.0174 128.204 72.1501 126.94C74.4216 125.653 77 125.006 79.6101 125.07C82.6521 125.102 85.6472 125.823 88.3701 127.18L86.3201 132.33C85.2185 131.808 84.0903 131.344 82.9401 130.94C81.8708 130.559 80.7452 130.36 79.6101 130.35Z"
        fill="white"></path>
    <path
        d="M118 125.5V144.86C118.047 146.896 117.536 148.905 116.52 150.67C115.51 152.351 114.014 153.686 112.23 154.5C110.146 155.43 107.881 155.884 105.6 155.83C101.76 155.83 98.76 154.83 96.6 152.83C95.5202 151.788 94.6767 150.527 94.1263 149.132C93.576 147.736 93.3317 146.238 93.41 144.74V125.5H99.73V143.81C99.73 146.12 100.2 147.81 101.12 148.89C102.04 149.97 103.59 150.51 105.73 150.51C106.555 150.584 107.387 150.477 108.166 150.195C108.945 149.914 109.653 149.465 110.24 148.88C111.167 147.793 111.633 146.09 111.64 143.77V125.5H118Z"
        fill="white"></path>
    <path
        d="M131.62 143.94V155.42H125.28V125.5H134C138.06 125.5 141.06 126.24 143 127.72C144.94 129.2 145.917 131.447 145.93 134.46C145.952 136.14 145.445 137.784 144.48 139.16C143.43 140.593 142.004 141.708 140.36 142.38C144.86 149.113 147.793 153.447 149.16 155.38H142.16L135 143.94H131.62ZM131.62 138.78H133.62C135.167 138.895 136.712 138.547 138.06 137.78C138.546 137.419 138.932 136.941 139.182 136.39C139.432 135.839 139.538 135.233 139.49 134.63C139.539 134.045 139.43 133.457 139.173 132.929C138.916 132.401 138.521 131.952 138.03 131.63C136.626 130.937 135.063 130.626 133.5 130.73H131.57L131.62 138.78Z"
        fill="white"></path>
    <path d="M170.18 155.42H153V125.5H170.23V130.7H159.29V137.27H169.42V142.46H159.29V150.18H170.18V155.42Z"
        fill="white"></path>
    <path
        d="M201.24 140.17C201.24 145.103 199.837 148.877 197.03 151.49C194.223 154.103 190.177 155.413 184.89 155.42H176.42V125.5H185.81C190.69 125.5 194.483 126.79 197.19 129.37C199.897 131.95 201.247 135.55 201.24 140.17ZM194.65 140.34C194.65 133.907 191.813 130.693 186.14 130.7H182.76V150.18H185.48C191.593 150.18 194.65 146.9 194.65 140.34V140.34Z"
        fill="white"></path>
    <path
        d="M218.33 125.5H227.64C231.88 125.5 234.957 126.103 236.87 127.31C237.823 127.923 238.593 128.781 239.1 129.795C239.607 130.808 239.831 131.94 239.75 133.07C239.817 134.634 239.375 136.178 238.49 137.47C238.102 138.023 237.606 138.491 237.032 138.847C236.458 139.203 235.818 139.438 235.15 139.54V139.74C236.763 140.002 238.223 140.849 239.25 142.12C240.307 143.86 240.715 145.918 240.404 147.93C240.093 149.942 239.083 151.78 237.55 153.12C235.212 154.75 232.397 155.556 229.55 155.41H218.33V125.5ZM224.67 137.35H228.35C229.648 137.447 230.946 137.17 232.09 136.55C232.488 136.242 232.802 135.838 233.003 135.377C233.203 134.916 233.285 134.411 233.24 133.91C233.279 133.422 233.181 132.933 232.959 132.497C232.737 132.061 232.398 131.695 231.98 131.44C230.73 130.86 229.354 130.606 227.98 130.7H224.65L224.67 137.35ZM224.67 142.35V150.15H228.8C230.165 150.255 231.526 149.903 232.67 149.15C233.102 148.77 233.439 148.295 233.656 147.762C233.873 147.229 233.963 146.654 233.92 146.08C233.92 143.59 232.14 142.35 228.6 142.35H224.67Z"
        fill="white"></path>
    <path d="M255.79 137.82L262 125.5H268.84L258.91 143.77V155.42H252.61V144L242.69 125.52H249.56L255.79 137.82Z"
        fill="white"></path>
    <path
        d="M301.18 147.11C301.233 148.329 300.995 149.542 300.488 150.651C299.98 151.761 299.217 152.733 298.26 153.49C296.32 155.05 293.61 155.83 290.15 155.83C287.226 155.89 284.327 155.274 281.68 154.03V148.13C283.336 148.883 285.048 149.508 286.8 150C288.052 150.343 289.342 150.527 290.64 150.55C291.764 150.62 292.881 150.34 293.84 149.75C294.419 149.291 294.805 148.632 294.922 147.903C295.039 147.173 294.877 146.426 294.47 145.81C294.071 145.285 293.58 144.838 293.02 144.49C291.772 143.745 290.479 143.077 289.15 142.49C287.664 141.844 286.269 141.007 285 140C284.103 139.226 283.36 138.29 282.81 137.24C282.249 136.092 281.971 134.827 282 133.55C281.943 132.374 282.156 131.2 282.622 130.119C283.089 129.037 283.796 128.077 284.69 127.31C286.816 125.689 289.452 124.884 292.12 125.04C293.624 125.032 295.123 125.217 296.58 125.59C298.094 125.998 299.575 126.519 301.01 127.15L299 132.11C297.699 131.563 296.363 131.106 295 130.74C293.993 130.484 292.959 130.353 291.92 130.35C290.928 130.284 289.947 130.582 289.16 131.19C288.839 131.456 288.583 131.792 288.41 132.171C288.236 132.55 288.151 132.963 288.16 133.38C288.144 133.893 288.276 134.4 288.54 134.84C288.868 135.322 289.29 135.734 289.78 136.05C291.071 136.827 292.407 137.528 293.78 138.15C295.973 139.035 297.938 140.402 299.53 142.15C300.633 143.565 301.215 145.316 301.18 147.11Z"
        fill="white"></path>
    <path
        d="M324.26 147.11C324.313 148.329 324.075 149.542 323.568 150.651C323.06 151.76 322.297 152.733 321.34 153.49C319.4 155.05 316.697 155.83 313.23 155.83C310.306 155.887 307.408 155.271 304.76 154.03V148.13C306.418 148.898 308.133 149.537 309.89 150.04C311.139 150.383 312.425 150.568 313.72 150.59C314.847 150.658 315.967 150.379 316.93 149.79C317.299 149.519 317.594 149.161 317.788 148.747C317.981 148.333 318.068 147.876 318.04 147.42C318.05 146.857 317.878 146.307 317.55 145.85C317.153 145.327 316.665 144.88 316.11 144.53C314.857 143.788 313.561 143.12 312.23 142.53C310.757 141.888 309.375 141.054 308.12 140.05C307.217 139.281 306.473 138.344 305.93 137.29C305.36 136.145 305.078 134.878 305.11 133.6C305.053 132.424 305.266 131.25 305.733 130.169C306.199 129.087 306.906 128.126 307.8 127.36C309.929 125.738 312.568 124.933 315.24 125.09C316.741 125.082 318.236 125.267 319.69 125.64C321.204 126.046 322.685 126.567 324.12 127.2L322.07 132.13C320.77 131.58 319.434 131.122 318.07 130.76C317.063 130.504 316.029 130.373 314.99 130.37C313.998 130.304 313.017 130.602 312.23 131.21C311.909 131.476 311.653 131.811 311.48 132.191C311.306 132.57 311.221 132.983 311.23 133.4C311.217 133.914 311.353 134.421 311.62 134.86C311.944 135.342 312.362 135.754 312.85 136.07C314.141 136.848 315.476 137.549 316.85 138.17C319.04 139.06 321.004 140.427 322.6 142.17C323.698 143.58 324.284 145.323 324.26 147.11V147.11Z"
        fill="white"></path>
    <path d="M329.68 155.42V125.5H336V150.18H348.13V155.42H329.68Z" fill="white"></path>
    <path d="M365.67 1V171.85H1V1H365.67ZM366.67 0H0V172.85H366.67V0Z" fill="#103A71"></path>
</svg>