<?xml version="1.0" encoding="UTF-8" standalone="no"?>
<svg
   xmlns:dc="http://purl.org/dc/elements/1.1/"
   xmlns:cc="http://creativecommons.org/ns#"
   xmlns:rdf="http://www.w3.org/1999/02/22-rdf-syntax-ns#"
   xmlns:svg="http://www.w3.org/2000/svg"
   xmlns="http://www.w3.org/2000/svg"
   xmlns:sodipodi="http://sodipodi.sourceforge.net/DTD/sodipodi-0.dtd"
   xmlns:inkscape="http://www.inkscape.org/namespaces/inkscape"
   inkscape:version="1.0 (4035a4fb49, 2020-05-01)"
   sodipodi:docname="lock.svg"
   id="svg33"
   version="1.1"
   viewBox="0 0 7.7545971 9.9702083"
   height="9.9702082mm"
   width="7.7545972mm">
  <defs
     id="defs27" />
  <sodipodi:namedview
     inkscape:window-maximized="1"
     inkscape:window-y="-3"
     inkscape:window-x="-8"
     inkscape:window-height="1017"
     inkscape:window-width="1920"
     showgrid="false"
     inkscape:document-rotation="0"
     inkscape:current-layer="g25"
     inkscape:document-units="mm"
     inkscape:cy="22.00662"
     inkscape:cx="-2.4033614"
     inkscape:zoom="7.7102273"
     inkscape:pageshadow="2"
     inkscape:pageopacity="0.0"
     borderopacity="1.0"
     bordercolor="#666666"
     pagecolor="#ffffff"
     id="base">
    <sodipodi:guide
       id="guide49"
       orientation="0,793.70079"
       position="-39.577987,133.40158" />
    <sodipodi:guide
       id="guide51"
       orientation="1122.5197,0"
       position="170.422,133.40158" />
    <sodipodi:guide
       id="guide53"
       orientation="0,-793.70079"
       position="170.422,-163.59841" />
    <sodipodi:guide
       id="guide55"
       orientation="-1122.5197,0"
       position="-39.577987,-163.59841" />
  </sodipodi:namedview>
  <metadata
     id="metadata30">
    <rdf:RDF>
      <cc:Work
         rdf:about="">
        <dc:format>image/svg+xml</dc:format>
        <dc:type
           rdf:resource="http://purl.org/dc/dcmitype/StillImage" />
      </cc:Work>
    </rdf:RDF>
  </metadata>
  <g
     transform="translate(-39.577989,-116.44305)"
     id="layer1"
     inkscape:groupmode="layer"
     inkscape:label="Layer 1">
    <g
       id="g25"
       transform="matrix(0.01971003,0,0,0.01971003,35.793663,114.55091)">
      <g
         id="icomoon-ignore" />
      <path
         style="fill:#707070;fill-opacity:1;stroke-width:0.585467"
         id="path13"
         d="M 585.43407,526.90357 V 489.43366 H 552.6479 l -28.10244,37.46991 z m 0,18.73495 c -0.0949,31.25752 -25.29629,56.20487 -56.36938,56.20487 H 248.36938 c -31.10061,0 -56.27336,-25.14758 -56.36938,-56.20487 H 585.43348 Z M 192,526.90357 v -37.46991 h 60.88861 l -28.10244,37.46991 z m 51.52113,0 28.10243,-37.46991 h 37.46991 l -28.10243,37.46991 z m 56.20487,0 28.10243,-37.46991 h 37.46991 l -28.10243,37.46991 z m 56.20486,0 28.10244,-37.46991 h 37.46991 l -28.10244,37.46991 z m 56.20487,0 28.10243,-37.46991 h 37.46991 l -28.10243,37.46991 z m 56.20487,0 28.10243,-37.46991 h 37.46991 l -28.10243,37.46991 z M 585.43407,470.6987 V 358.46636 c 0,-31.08422 -25.12065,-56.29327 -56.20487,-56.38226 V 236.49712 C 529.2292,158.9022 466.16207,95.999 388.71703,95.999 c -77.60252,0 -140.51216,62.88798 -140.51216,140.49812 V 302.0841 C 217.14875,302.17192 192,327.18074 192,358.46636 V 470.6987 Z M 304.40973,302.0841 v -65.55654 c 0,-46.6799 37.74567,-84.32311 84.3073,-84.32311 46.46679,0 84.30731,37.75269 84.30731,84.32311 v 65.55654 z" />
    </g>
  </g>
</svg>
