<svg xmlns="http://www.w3.org/2000/svg" width="240" height="65.583" viewBox="0 0 240 65.583"><g transform="translate(-108.267 -72.054)"><path d="M123.837,80.85l-6.774,6.774,17.225,17.225-4.4,4.4-6.519,6.513-6.308,6.308,6.774,6.774,6.308-6.308,6.519-6.513,4.4-4.4,4.4,4.4,6.258,6.258v.006l-4.392,4.4-6.264-6.264-6.519,6.513-4.4,4.4-6.308,6.308-15.57-15.57,10.706-10.706,6.519-6.513L108.267,87.624l15.57-15.57,17.225,17.225,6.619-6.619,4.037,4.037v.722L141.062,98.074Z" transform="translate(0)" fill="#fff"/><path d="M153.974,94.155l-6.619,6.619,6.619,6.619v8.8l-15.415-15.414,3.882-3.882.516-.516,11.017-11.017Z" transform="translate(9.277 4.075)" fill="#fff"/><g transform="translate(174.721 88.22)"><path d="M181.043,91.17h-7.758v25.292h-6.367V91.17h-7.777V84.88h21.9Z" transform="translate(-159.141 -84.292)" fill="#fff"/><path d="M189.285,91.13V97.3h10.893v6.329H189.285v6.523h12.7v6.308H182.938V84.88H201.98v6.25Z" transform="translate(-151.853 -84.292)" fill="#fff"/><path d="M230.776,84.939v32.249h-.294l-18.75-18.24v17.692h-6.347V84.43h.314l18.709,18.2V84.939Z" transform="translate(-144.979 -84.43)" fill="#fff"/><path d="M270.619,84.88v31.581h-6.327V103.806H252.948v12.655h-6.327V84.88h6.327V97.517h11.343V84.88Z" transform="translate(-132.35 -84.292)" fill="#fff"/><path d="M289.91,116.461l-10.052-14.928v14.928h-6.347l-.02-31.581h10.3a10.489,10.489,0,0,1,10.736,10.227,9.252,9.252,0,0,1-5.838,8.8l8.973,12.557ZM279.84,99.1l4.074.02a3.978,3.978,0,1,0,0-7.954H279.84Z" transform="translate(-124.121 -84.292)" fill="#fff"/></g></g></svg>